<?xml version="1.0" encoding="utf-8"?>
<!-- Generator: Adobe Illustrator 22.0.1, SVG Export Plug-In . SVG Version: 6.00 Build 0)  -->
<svg version="1.1" id="Layer_1" xmlns="http://www.w3.org/2000/svg" xmlns:xlink="http://www.w3.org/1999/xlink" x="0px" y="0px"
	 viewBox="0 0 303 86" style="enable-background:new 0 0 303 86;" xml:space="preserve">
<g transform="translate(0 19)">
	<path d="M71.3,25.7l2.6-7.6H74l2.6,7.6H71.3z M71.7,13L64,33.7h4.5l1.6-4.6h7.6l1.5,4.6h4.6L76.3,13H71.7z M93.1,31
		c-0.6,0-1.2-0.1-1.7-0.4s-0.8-0.6-1.1-1.1c-0.3-0.4-0.5-0.9-0.6-1.5c-0.1-0.6-0.2-1.2-0.2-1.8c0-0.6,0.1-1.2,0.2-1.8
		c0.1-0.6,0.3-1.1,0.6-1.5s0.6-0.8,1.1-1.1s1-0.4,1.7-0.4c0.6,0,1.2,0.1,1.6,0.4s0.8,0.6,1.1,1.1c0.3,0.5,0.5,1,0.6,1.6
		c0.1,0.6,0.2,1.2,0.2,1.8c0,0.6-0.1,1.2-0.2,1.8s-0.3,1.1-0.6,1.5c-0.3,0.4-0.6,0.8-1.1,1.1S93.7,31,93.1,31L93.1,31z M85.6,18.7
		V39h4v-7.1h0.1c0.5,0.7,1.1,1.3,1.9,1.7s1.6,0.6,2.5,0.6c1.1,0,2-0.2,2.8-0.6c0.8-0.4,1.5-1,2-1.7c0.5-0.7,0.9-1.5,1.2-2.5
		c0.3-0.9,0.4-1.9,0.4-2.9c0-1.1-0.1-2.1-0.4-3.1c-0.3-1-0.7-1.8-1.2-2.6c-0.6-0.7-1.2-1.3-2.1-1.8s-1.8-0.7-3-0.7
		c-0.9,0-1.7,0.2-2.5,0.6s-1.4,1-1.9,1.8h-0.1v-1.9H85.6z M110.9,31c-0.6,0-1.2-0.1-1.7-0.4s-0.8-0.6-1.1-1.1
		c-0.3-0.4-0.5-0.9-0.6-1.5c-0.1-0.6-0.2-1.2-0.2-1.8c0-0.6,0.1-1.2,0.2-1.8c0.1-0.6,0.3-1.1,0.6-1.5s0.6-0.8,1.1-1.1s1-0.4,1.7-0.4
		c0.6,0,1.2,0.1,1.6,0.4s0.8,0.6,1.1,1.1c0.3,0.5,0.5,1,0.6,1.6c0.1,0.6,0.2,1.2,0.2,1.8c0,0.6-0.1,1.2-0.2,1.8
		c-0.1,0.6-0.3,1.1-0.6,1.5c-0.3,0.4-0.6,0.8-1.1,1.1C112.1,30.9,111.6,31,110.9,31L110.9,31z M103.5,18.7V39h4v-7.1h0.1
		c0.5,0.7,1.1,1.3,1.9,1.7s1.6,0.6,2.5,0.6c1.1,0,2-0.2,2.8-0.6c0.8-0.4,1.5-1,2-1.7c0.5-0.7,0.9-1.5,1.2-2.5s0.4-1.9,0.4-2.9
		c0-1.1-0.1-2.1-0.4-3.1c-0.3-1-0.7-1.8-1.2-2.6c-0.6-0.7-1.2-1.3-2.1-1.8s-1.8-0.7-3-0.7c-0.9,0-1.7,0.2-2.5,0.6s-1.4,1-1.9,1.8
		h-0.1v-1.9H103.5z M121.4,13v20.7h4V13H121.4z M139,24.6h-6.6c0-0.3,0.1-0.6,0.2-1c0.1-0.4,0.3-0.7,0.5-1c0.3-0.3,0.6-0.6,1-0.8
		c0.4-0.2,1-0.3,1.6-0.3c1,0,1.7,0.3,2.2,0.8C138.5,22.8,138.8,23.6,139,24.6L139,24.6z M132.4,27.2H143c0.1-1.2,0-2.3-0.3-3.3
		c-0.3-1.1-0.7-2-1.3-2.8c-0.6-0.8-1.4-1.5-2.3-2c-0.9-0.5-2-0.7-3.3-0.7c-1.1,0-2.1,0.2-3.1,0.6c-0.9,0.4-1.7,1-2.4,1.7
		c-0.7,0.7-1.2,1.5-1.5,2.5c-0.4,1-0.5,2-0.5,3.1c0,1.2,0.2,2.2,0.5,3.2s0.9,1.8,1.5,2.5c0.6,0.7,1.4,1.2,2.4,1.6s2,0.6,3.1,0.6
		c1.7,0,3.1-0.4,4.3-1.2c1.2-0.8,2.1-2.1,2.6-3.9h-3.6c-0.1,0.5-0.5,0.9-1.1,1.3c-0.6,0.4-1.3,0.6-2.1,0.6c-1.1,0-2-0.3-2.6-0.9
		C132.8,29.5,132.5,28.6,132.4,27.2L132.4,27.2z M165.6,33.7l5.5-20.7h-4.4l-3.3,14.3h-0.1L159.9,13h-4.2l-3.5,14.1h-0.1L148.9,13
		h-4.5l5.4,20.7h4.5l3.4-14.1h0.1l3.4,14.1H165.6z M175.1,26.2c0-0.6,0.1-1.2,0.2-1.8c0.1-0.6,0.3-1.1,0.6-1.5
		c0.3-0.4,0.6-0.8,1.1-1.1s1-0.4,1.7-0.4c0.7,0,1.3,0.1,1.7,0.4c0.5,0.3,0.8,0.6,1.1,1.1s0.5,1,0.6,1.5c0.1,0.6,0.2,1.2,0.2,1.8
		s-0.1,1.2-0.2,1.8s-0.3,1.1-0.6,1.5s-0.6,0.8-1.1,1.1c-0.5,0.3-1,0.4-1.7,0.4c-0.7,0-1.3-0.1-1.7-0.4s-0.8-0.6-1.1-1.1
		c-0.3-0.5-0.5-1-0.6-1.5S175.1,26.8,175.1,26.2L175.1,26.2z M171.1,26.2c0,1.2,0.2,2.3,0.5,3.3c0.4,1,0.9,1.8,1.5,2.5
		c0.7,0.7,1.5,1.2,2.4,1.6c0.9,0.4,2,0.6,3.1,0.6c1.2,0,2.2-0.2,3.1-0.6c0.9-0.4,1.7-0.9,2.4-1.6c0.7-0.7,1.2-1.5,1.5-2.5
		c0.4-1,0.5-2.1,0.5-3.3s-0.2-2.3-0.5-3.3c-0.4-1-0.9-1.8-1.5-2.5c-0.7-0.7-1.5-1.2-2.4-1.6c-0.9-0.4-2-0.6-3.1-0.6
		c-1.2,0-2.2,0.2-3.1,0.6c-0.9,0.4-1.7,0.9-2.4,1.6S172,22,171.6,23C171.3,24,171.1,25,171.1,26.2L171.1,26.2z M189.4,18.7v15h4V27
		c0-0.7,0.1-1.3,0.2-1.9c0.1-0.6,0.4-1.1,0.7-1.5c0.3-0.4,0.7-0.8,1.2-1c0.5-0.3,1.1-0.4,1.9-0.4c0.2,0,0.5,0,0.8,0
		c0.3,0,0.5,0.1,0.7,0.1v-3.8c-0.3-0.1-0.6-0.1-0.9-0.1c-0.5,0-1,0.1-1.5,0.2s-0.9,0.4-1.3,0.7c-0.4,0.3-0.8,0.6-1.1,1
		s-0.6,0.8-0.8,1.3h-0.1v-2.8H189.4z M201,13v20.7h4V13H201z M219.1,26.2c0,0.6-0.1,1.2-0.2,1.8c-0.1,0.6-0.3,1.1-0.6,1.6
		s-0.6,0.8-1.1,1.1c-0.4,0.3-1,0.4-1.7,0.4c-0.6,0-1.2-0.1-1.6-0.4s-0.8-0.6-1.1-1.1c-0.3-0.5-0.5-1-0.6-1.6s-0.2-1.2-0.2-1.7
		c0-0.6,0.1-1.2,0.2-1.8c0.1-0.6,0.3-1.1,0.6-1.5c0.3-0.4,0.6-0.8,1.1-1.1s1-0.4,1.7-0.4s1.2,0.1,1.7,0.4c0.4,0.3,0.8,0.6,1.1,1.1
		c0.3,0.4,0.5,0.9,0.6,1.5C219,25,219.1,25.6,219.1,26.2L219.1,26.2z M219.2,31.8v1.9h3.8V13h-4v7.6h-0.1c-0.5-0.7-1.1-1.3-1.9-1.7
		c-0.8-0.4-1.6-0.6-2.5-0.6c-1.1,0-2,0.2-2.8,0.7c-0.8,0.4-1.5,1-2,1.7s-0.9,1.5-1.2,2.5c-0.3,0.9-0.4,1.9-0.4,2.9
		c0,1,0.1,2.1,0.4,3c0.3,1,0.7,1.8,1.2,2.6c0.5,0.7,1.2,1.3,2.1,1.8s1.8,0.7,2.9,0.7c1,0,1.8-0.2,2.6-0.5
		C218,33.2,218.6,32.6,219.2,31.8L219.2,31.8z M230,14.1V13h15.5v1.1h-7.1v19.6h-1.2V14.1H230z M246,26.2c0-1.1,0.1-2.1,0.4-3
		s0.7-1.8,1.3-2.5c0.6-0.7,1.3-1.3,2.1-1.7c0.8-0.4,1.8-0.6,2.9-0.6s2,0.2,2.9,0.6c0.8,0.4,1.5,1,2.1,1.7c0.6,0.7,1,1.5,1.3,2.5
		c0.3,0.9,0.4,1.9,0.4,3c0,1.1-0.1,2.1-0.4,3c-0.3,0.9-0.7,1.8-1.3,2.5c-0.6,0.7-1.3,1.3-2.1,1.7c-0.8,0.4-1.8,0.6-2.9,0.6
		s-2-0.2-2.9-0.6c-0.8-0.4-1.5-1-2.1-1.7c-0.6-0.7-1-1.5-1.3-2.5S246,27.3,246,26.2L246,26.2z M247.1,26.2c0,0.9,0.1,1.7,0.4,2.6
		c0.2,0.8,0.6,1.5,1.1,2.2c0.5,0.6,1.1,1.1,1.8,1.5c0.7,0.4,1.5,0.6,2.4,0.6c0.9,0,1.7-0.2,2.4-0.6c0.7-0.4,1.3-0.9,1.8-1.5
		s0.8-1.4,1.1-2.2c0.2-0.8,0.4-1.7,0.4-2.6s-0.1-1.7-0.4-2.6c-0.2-0.8-0.6-1.5-1.1-2.2s-1.1-1.1-1.8-1.5c-0.7-0.4-1.5-0.6-2.4-0.6
		c-0.9,0-1.7,0.2-2.4,0.6c-0.7,0.4-1.3,0.9-1.8,1.5c-0.5,0.6-0.8,1.4-1.1,2.2C247.2,24.5,247.1,25.3,247.1,26.2L247.1,26.2z
		 M273.2,30.5L273.2,30.5c-0.7,1.2-1.4,2.1-2.3,2.6s-2,0.9-3.3,0.9c-1.1,0-2-0.2-2.8-0.6c-0.8-0.4-1.4-1-2-1.7
		c-0.5-0.7-0.9-1.5-1.1-2.5s-0.4-1.9-0.4-2.9c0-1.1,0.1-2.1,0.4-3.1c0.3-1,0.7-1.8,1.2-2.5c0.5-0.7,1.2-1.2,2-1.7
		c0.8-0.4,1.8-0.6,2.9-0.6c0.6,0,1.2,0.1,1.7,0.2c0.6,0.2,1.1,0.4,1.6,0.7s0.9,0.7,1.3,1.2c0.4,0.5,0.6,1,0.8,1.6h0.1V13h1.1v20.7
		h-1.1V30.5z M267.8,33.1c0.9,0,1.7-0.2,2.4-0.6c0.7-0.4,1.2-0.9,1.7-1.5s0.8-1.4,1-2.2c0.2-0.8,0.3-1.7,0.3-2.5
		c0-0.9-0.1-1.7-0.3-2.5c-0.2-0.8-0.5-1.6-1-2.2s-1-1.2-1.7-1.5c-0.7-0.4-1.5-0.6-2.4-0.6c-1,0-1.8,0.2-2.5,0.6
		c-0.7,0.4-1.2,0.9-1.7,1.5c-0.4,0.6-0.8,1.4-1,2.2c-0.2,0.8-0.3,1.7-0.3,2.6c0,0.9,0.1,1.7,0.3,2.5c0.2,0.8,0.5,1.5,1,2.2
		c0.4,0.6,1,1.1,1.7,1.5S266.8,33.1,267.8,33.1L267.8,33.1z M287.4,30.7L287.4,30.7c-0.2,0.4-0.5,0.9-0.8,1.3
		c-0.3,0.4-0.7,0.7-1.2,1.1c-0.5,0.3-1,0.6-1.6,0.7c-0.6,0.2-1.2,0.3-1.9,0.3c-1.5,0-2.7-0.3-3.6-1c-0.9-0.7-1.3-1.7-1.3-3.2
		c0-0.9,0.2-1.6,0.5-2.1c0.3-0.6,0.8-1,1.3-1.3s1.1-0.5,1.7-0.7c0.6-0.1,1.2-0.2,1.8-0.3l1.7-0.1c0.8-0.1,1.4-0.1,1.8-0.3
		c0.4-0.1,0.8-0.3,1-0.5c0.2-0.2,0.4-0.5,0.4-0.9s0.1-0.8,0.1-1.3c0-0.4-0.1-0.8-0.2-1.1c-0.2-0.3-0.4-0.7-0.7-0.9
		c-0.3-0.3-0.7-0.5-1.2-0.6c-0.5-0.2-1.1-0.2-1.9-0.2c-1.3,0-2.4,0.3-3.2,1c-0.8,0.7-1.2,1.7-1.3,3h-1.1c0.1-1.6,0.6-2.9,1.5-3.7
		c1-0.8,2.3-1.2,4.1-1.2c1.8,0,3,0.4,3.8,1.1c0.8,0.7,1.2,1.6,1.2,2.8v8.7c0,0.2,0,0.4,0,0.6c0,0.2,0,0.4,0.1,0.6
		c0.1,0.2,0.2,0.3,0.3,0.4c0.1,0.1,0.3,0.2,0.6,0.2c0.2,0,0.5,0,0.8-0.1v0.9c-0.3,0.1-0.6,0.1-0.9,0.1c-0.4,0-0.8-0.1-1-0.2
		s-0.4-0.3-0.6-0.5c-0.1-0.2-0.2-0.4-0.3-0.7c0-0.3-0.1-0.5-0.1-0.9V30.7z M287.4,25.2c-0.3,0.3-0.7,0.6-1.2,0.7
		c-0.5,0.1-1.1,0.2-1.8,0.3l-1.8,0.2c-0.5,0.1-1.1,0.1-1.6,0.2c-0.5,0.1-1,0.3-1.4,0.5c-0.4,0.3-0.8,0.6-1,1c-0.3,0.4-0.4,1-0.4,1.7
		c0,1.1,0.3,1.9,1,2.4s1.6,0.8,2.8,0.8c1.2,0,2.2-0.2,2.9-0.7c0.7-0.5,1.3-1,1.6-1.6s0.6-1.2,0.7-1.7c0.1-0.6,0.2-0.9,0.2-1.1V25.2z
		 M290.1,18.8h1.3l5.4,13.6l5-13.6h1.2l-6.2,16.5c-0.3,0.7-0.6,1.4-0.8,1.9c-0.3,0.5-0.5,0.9-0.9,1.2c-0.4,0.3-0.8,0.5-1.3,0.6
		s-1.2,0.1-2.1,0.1v-1c0.8,0,1.4-0.1,1.8-0.2c0.4-0.1,0.8-0.4,1.2-0.8c0.2-0.2,0.4-0.6,0.7-1.2c0.2-0.6,0.5-1.3,0.9-2.3L290.1,18.8z
		"/>
	<circle cx="230.5" cy="32.5" r="1.5"/>
	<path d="M5.5,14.4c-2.3,2.7-4.1,5.9-5.5,9.4v-7.7C1.7,15.4,3.6,14.8,5.5,14.4z M36.7,41.4c-0.1,2.7-0.7,5.2-1.5,7.6h-12
		c0.5-2.5,0.8-5,0.8-7.6H36.7z M21.5,41.4c-0.1,2.6-0.4,5.2-0.9,7.6h-8.8v-7.6H21.5z M9.3,38.9H0v-5c0.3-2.2,0.8-4.3,1.4-6.3
		c2.5,0.4,5.2,0.7,7.9,0.7V38.9z M5.1,49C2.3,49,0,46.7,0,43.9v-2.5h9.3V49H5.1z M11.8,28.3c2.7-0.1,5.3-0.3,7.8-0.7
		c1.1,3.5,1.8,7.3,1.9,11.3h-9.7V28.3z M11.8,14.4c2.9,2.8,5.3,6.5,7,10.7c-2.2,0.4-4.6,0.6-7,0.6V14.4z M31.1,23.9
		c3.3,4.2,5.3,9.3,5.6,14.9H24c-0.1-4.1-0.8-8.1-1.9-11.8C25.5,26.3,28.5,25.3,31.1,23.9z M43.9,0C46.7,0,49,2.3,49,5.1v38.9
		c0,2.8-2.3,5.1-5.1,5.1h-6.1c0.9-2.8,1.4-5.8,1.4-8.9c0-15.8-12.9-28.7-28.7-28.7c-3.7,0-7.3,0.7-10.6,2V5.1C0,2.3,2.3,0,5.1,0
		H43.9z M32.1,17.7c7,0,12.7-5.7,12.7-12.7C37.8,5.1,32.1,10.7,32.1,17.7z M9.3,25.8c-2.4-0.1-4.8-0.3-7.1-0.6
		c1.7-4.3,4.1-8.1,7.1-11V25.8z M29.4,21.9c-2.3,1.2-5.1,2.1-8.1,2.7c-1.5-3.9-3.5-7.4-6-10.3C20.8,15.4,25.7,18.1,29.4,21.9z"/>
</g>
</svg>
