<svg xmlns="http://www.w3.org/2000/svg" width="29" height="29" viewBox="0 0 29 29">
  <g fill="none" fill-rule="evenodd">
    <rect width="29" height="29" fill="#0086EC" rx="8"/>
    <path fill="#FFF" d="M19.1830273,15.3827264 L21.8919097,15.3827264 C22.5038911,15.3827264 23,15.8788353 23,16.4908166 C23,17.102798 22.5038911,17.5989069 21.8919097,17.5989069 L20.4536417,17.5989069 L21.4405549,19.3202614 C21.7452141,19.8516418 21.5625275,20.5293471 21.0320685,20.8356077 C20.5017294,21.1417992 19.8236185,20.9609145 19.5162387,20.4312633 C18.1347212,18.0507482 16.7532038,15.6702331 15.3716863,13.289718 C15.3711052,13.2885139 15.1269304,12.8529046 15.2063508,11.854191 C15.247164,11.3409646 15.5464924,10.7272124 16.1043361,10.0129341 L19.1830273,15.3827264 Z M14.5401063,7.33442968 L14.9574272,6.61160864 C15.2634179,6.08161725 15.9411153,5.90002879 16.4711067,6.20601946 C17.0010981,6.51201013 17.1826865,7.1897075 16.8766959,7.71969889 L12.4524449,15.3827264 L15.8364357,15.3827264 C15.9602619,15.4213161 16.9363237,16.0444209 16.945182,16.948671 C16.9480626,17.242726 16.8895871,17.4594713 16.7697553,17.5989069 L7.10569106,17.5989069 C6.49503475,17.5989069 6,17.102798 6,16.4908166 C6,15.8788353 6.49503475,15.3827264 7.10569106,15.3827264 L9.89342006,15.3827264 L13.2605939,9.55061019 L12.1725636,7.66608634 C11.8665729,7.13609495 12.0481614,6.45839759 12.5781527,6.15240691 C13.1081441,5.84641624 13.7858415,6.0280047 14.0918322,6.55799609 L14.5401063,7.33442968 Z M8.33149736,18.1869971 C8.33149736,18.1869971 8.57989963,17.9826014 9.14650985,17.9946554 C9.52424999,18.0026914 10.011092,18.2348228 10.6070358,18.6910497 L9.51406299,20.455702 C9.18894317,20.9806222 8.50568774,21.1524163 7.97096068,20.8436915 C7.95915663,20.8368764 7.94748631,20.8298323 7.93595635,20.8225631 C7.44509303,20.5130936 7.29804425,19.8642957 7.60751371,19.3734324 L7.60748648,19.3734153 C7.84074107,19.0034397 8.08207803,18.607967 8.33149736,18.1869971 Z"/>
  </g>
</svg>
