<?xml version="1.0" encoding="utf-8"?>
<!-- Generator: Adobe Illustrator 22.0.1, SVG Export Plug-In . SVG Version: 6.00 Build 0)  -->
<svg version="1.1" id="Layer_1" xmlns="http://www.w3.org/2000/svg" xmlns:xlink="http://www.w3.org/1999/xlink" x="0px" y="0px"
	 viewBox="0 0 176 86" style="enable-background:new 0 0 176 86;" xml:space="preserve">
<g transform="translate(0 27)">
	<path d="M16.1,13.8c0-4.2-1.5-8.5-7.9-8.5c-2.6,0-5.1,0.7-6.8,1.8l0.9,2.5c1.6-1,3.5-1.5,5.4-1.5c4.2,0,4.7,3.1,4.7,4.8v0.4
		C4.4,13.3,0,16,0,21.1C0,24,2.1,27,6.3,27c2.9,0,5.2-1.5,6.3-3.1h0.1l0.3,2.6h3.4c-0.3-1.6-0.4-3.3-0.3-5V13.8z M12.5,19.6
		c0,0.4-0.1,0.8-0.2,1.2c-0.7,2.1-2.8,3.5-5,3.5c-1.9,0-3.5-1.2-3.5-3.6c0-4,4.7-4.8,8.8-4.7V19.6z M31.7,5.4C37,5.4,41,9.6,41,15.9
		C41,23.3,36.2,27,31,27c-2.9,0-5.4-1.2-6.7-3.3h-0.1v8h-3.5V12.6V5.8h3l0.2,3.6H24C25.6,6.9,28.2,5.4,31.7,5.4z M30.4,24L30.4,24
		c4.2,0,6.6-3.3,6.6-8c0-4.1-2.3-7.7-6.5-7.7c-2.8,0-5.3,1.9-6,4.7c-0.2,0.5-0.3,1-0.3,1.5v3.6c0,0.5,0.1,1,0.2,1.5
		C25.2,22.3,27.6,24.1,30.4,24z M91,14.4c3.6,1.3,5.4,3.1,5.4,6.1c0,3.6-2.8,6.1-7.7,6.1c-2.2,0-4.3-0.5-5.7-1.4l-1.3,4.1
		c-0.3,0.9-1.1,1.7-2,1.7H57.1c-1,0-2-0.7-1.7-1.7l0.9-2.8c-1,0.3-2,0.4-3,0.4c-2.9,0-5.4-1.2-6.8-3.3v8H43V12.6l0-6.8h3l0.3,3.6
		c1.6-2.5,4.2-4,7.8-4c3.1,0,6,1.6,7.6,4.3l2.5-7.9C64.4,0.7,65,0,65.9,0h22.6c1,0,2,0.8,1.7,1.7l-1.2,3.8c0.5-0.1,1-0.1,1.5-0.1
		c1.8,0,3.5,0.4,5.1,1.3l-0.9,2.7c-1.3-0.8-2.7-1.2-4.2-1.2c-0.9,0-1.7,0.2-2.4,0.7l-0.9,2.9C87.6,12.9,88.8,13.6,91,14.4z M52.6,24
		c2.4,0,4.2-1.1,5.3-2.9l1.2-3.9c0-0.4,0.1-0.8,0.1-1.2c0-4.1-2.3-7.7-6.5-7.7c-2.8,0-5.3,1.9-6,4.7c-0.2,0.5-0.2,1-0.3,1.5v3.6
		c0,0.5,0.1,1,0.2,1.5C47.4,22.3,49.8,24,52.6,24z M67.7,27.2l12.8-13.9l-6.7-2.6l3.3-6.9l-10,9.2l6.4,2.6L67.7,27.2z M88.8,23.9
		c2.7,0,4-1.3,4-3c0-1.8-1.1-2.7-3.8-3.7c-1.1-0.4-2.1-0.8-3-1.5l-2.1,6.8C85.3,23.4,87,23.9,88.8,23.9z M104.1,0.4v5h5.4v2.9h-5.4
		v11.2c0,2.6,0.7,4,2.8,4c0.7,0,1.5-0.1,2.2-0.3l0.2,2.8c-0.7,0.3-1.9,0.5-3.3,0.5c-1.8,0-3.2-0.6-4.1-1.6c-1.1-1.1-1.5-2.9-1.5-5.4
		V8.3h-3.2V5.4h3.2v-5L104.1,0.4z M120.6,5.4c5.9,0,10,4.3,10,10.6c0,7.7-5.3,11-10.3,11c-5.6,0-9.9-4.1-9.9-10.6
		C110.4,9.4,114.9,5.4,120.6,5.4z M120.5,24.2c3.6,0,6.3-3.4,6.3-8c0-3.5-1.8-7.9-6.2-7.9s-6.4,4.1-6.4,8
		C114.2,20.8,116.8,24.2,120.5,24.2z M136.9,9.9c0.9-2.8,3.2-4.5,5.7-4.5c0.4,0,0.7,0,1.1,0.1V9c-0.4-0.1-0.8-0.1-1.3-0.1
		c-2.7,0-4.5,2-5,4.8c-0.1,0.6-0.2,1.2-0.2,1.8v10.2h-3.7V12.3c0-2.4,0-4.5-0.2-6.5h3.3l0.1,4.1H136.9z M169,5.4
		c2.7,0,6.8,1.8,6.8,9v11.4h-3.7V14.8c0-4-1.5-6.4-4.5-6.4c-2.1,0-3.8,1.6-4.4,3.4c-0.2,0.6-0.3,1.2-0.3,1.9v12h-3.7V14.1
		c0-3.3-1.5-5.7-4.3-5.7c-2.4,0-4.1,1.9-4.7,3.8c-0.2,0.6-0.3,1.2-0.3,1.8v11.7h-3.7V11.4c0-2.1,0-3.9-0.2-5.6h3.3l0.2,3.3h0.1
		c1.2-2,3.1-3.8,6.5-3.8c2.8,0,5,1.7,5.9,4.1h0.1c0.6-1,1.4-2,2.3-2.7C165.7,5.9,167,5.4,169,5.4z"/>
	<path d="M90.3,1.7l-8.7,27.6c-0.3,0.9-1.1,1.7-2,1.7H57.1c-1,0-2-0.7-1.7-1.7l8.7-27.6C64.4,0.7,65,0,65.9,0h22.6
		C89.6,0,90.6,0.8,90.3,1.7z M67.7,27.2l12.8-13.9l-6.7-2.6l3.3-6.9l-10,9.2l6.4,2.6L67.7,27.2z"/>
</g>
</svg>
