<svg xmlns="http://www.w3.org/2000/svg" xmlns:xlink="http://www.w3.org/1999/xlink" width="64" height="64" viewBox="0 0 64 64">
  <defs>
    <rect id="incognito-a" width="52" height="52" rx="26"/>
  </defs>
  <g fill="none" fill-rule="evenodd">
    <rect width="64" height="64" fill="#DEDEE2" rx="32"/>
    <g transform="translate(6 6)">
      <mask id="incognito-b" fill="#fff">
        <use xlink:href="#incognito-a"/>
      </mask>
      <use fill="#DEDEE2" xlink:href="#incognito-a"/>
      <circle cx="26" cy="16" r="11" fill="#FFF" mask="url(#incognito-b)"/>
      <path fill="#FFF" d="M16.8208714,31.455373 C19.7410299,31.1331549 22.8007394,30.9720459 26,30.9720459 C29.2069832,30.9720459 32.2737409,31.1339337 35.2002729,31.4577092 L35.200273,31.4577086 C37.6215516,31.7255857 39.7888484,33.0820918 41.087988,35.1428161 L44.6455634,40.7859265 C45.461428,42.0800691 45.172805,43.7808283 43.9756742,44.7333607 C37.88818,49.5770545 31.8962887,51.9989014 26,51.9989014 C20.1029094,51.9989014 14.1229403,49.5823436 8.0600926,44.7492279 L8.06009241,44.7492282 C6.86822006,43.7991042 6.57825896,42.106257 7.3859795,40.8136306 L10.9138967,35.1677656 C12.211167,33.0916939 14.3875827,31.7238686 16.8208714,31.455373 Z" mask="url(#incognito-b)"/>
    </g>
  </g>
</svg>
