<?xml version="1.0" encoding="utf-8"?>
<!-- Generator: Adobe Illustrator 22.0.1, SVG Export Plug-In . SVG Version: 6.00 Build 0)  -->
<svg version="1.1" id="Layer_1" xmlns="http://www.w3.org/2000/svg" xmlns:xlink="http://www.w3.org/1999/xlink" x="0px" y="0px"
	 viewBox="0 0 126 86" style="enable-background:new 0 0 126 86;" xml:space="preserve">
<path d="M64.7,57H54.4v-9.1c0-1.2-0.5-2.3-1.2-3.2l-4-4c-0.9-0.7-1.9-1.2-3.1-1.2H44V57H33.6V29h15c2.2,0,4.5,0.9,6,2.6l7.4,7.5
	c1.7,1.6,2.6,3.8,2.6,6.1V57L64.7,57z M109.6,29v9.1c0,1.2-0.5,2.3-1.2,3.1l-4,4c-0.9,0.9-1.9,1.2-3.1,1.2H97
	c1.4-1.6,2.2-3.7,2.2-5.8V29H88.9v9.1c0,1.2-0.5,2.3-1.2,3.1l-4,4c-0.9,0.9-1.9,1.2-3.1,1.2h-2.1V29H68.2v28h15c2.2,0,4.5-0.9,6-2.6
	l4.8-4.9V57h9.8c2.2,0,4.5-0.9,6-2.6l7.4-7.5c1.7-1.6,2.6-3.9,2.6-6.1V29H109.6L109.6,29z M30.2,29H6v10.5h6.9V57h10.4V39.5h6.9V29z
	"/>
</svg>
